<svg width="256" height="256" viewBox="0 0 256 256" xmlns="http://www.w3.org/2000/svg" role="img" aria-label="Habit Battles logo">
  <defs>
    <!-- Dark grey → red gradient -->
    <linearGradient id="hb-grad" x1="56" y1="24" x2="208" y2="232" gradientUnits="userSpaceOnUse">
      <stop offset="0" stop-color="#111827"/>
      <stop offset="1" stop-color="#EF4444"/>
    </linearGradient>

    <!-- Steel gradient for blades -->
    <linearGradient id="steel" x1="0" y1="-120" x2="0" y2="96" gradientUnits="userSpaceOnUse">
      <stop offset="0" stop-color="#E5E7EB"/>
      <stop offset="0.5" stop-color="#9CA3AF"/>
      <stop offset="1" stop-color="#6B7280"/>
    </linearGradient>

    <!-- Shield path for reuse and clipping (unscaled master shape) -->
    <path id="shield-shape" d="M128 24c-30 0-62 11-78 19v68c0 56 36 110 78 128c42-18 78-72 78-128V43c-16-8-48-19-78-19Z"/>

    <clipPath id="clip-shield">
      <use href="#shield-shape"/>
    </clipPath>

    <!-- Soft drop shadow for the shield -->
    <filter id="shadow" x="-20%" y="-20%" width="140%" height="140%">
      <feDropShadow dx="0" dy="2" stdDeviation="3" flood-color="#000000" flood-opacity="0.25"/>
    </filter>
  </defs>

  <!-- ========= Crossed swords (scaled up so they show clearly behind) ========= -->
  <!-- Center at 128,128 then scale up -->
  <g transform="translate(128,128) scale(1.25)" opacity="0.95">
    <!-- Left sword -->
    <g transform="rotate(-35)">
      <!-- blade -->
      <path d="M -6 -100 L 0 -124 L 6 -100 L 6 42 L -6 42 Z"
            fill="url(#steel)" stroke="#FFFFFF" stroke-width="1.6" stroke-linejoin="round"/>
      <!-- fuller (groove) -->
      <rect x="-1" y="-98" width="2" height="138" fill="#E5E7EB" opacity="0.35"/>
      <!-- guard -->
      <rect x="-24" y="42" width="48" height="8" rx="3" fill="#111827" stroke="#FFFFFF" stroke-width="1.3"/>
      <!-- grip -->
      <rect x="-6" y="50" width="12" height="36" rx="4" fill="#EF4444" stroke="#FFFFFF" stroke-width="1.2"/>
      <!-- pommel -->
      <circle cx="0" cy="92" r="7.5" fill="#111827" stroke="#FFFFFF" stroke-width="1.3"/>
    </g>

    <!-- Right sword -->
    <g transform="rotate(35)">
      <path d="M -6 -100 L 0 -124 L 6 -100 L 6 42 L -6 42 Z"
            fill="url(#steel)" stroke="#FFFFFF" stroke-width="1.6" stroke-linejoin="round"/>
      <rect x="-1" y="-98" width="2" height="138" fill="#E5E7EB" opacity="0.35"/>
      <rect x="-24" y="42" width="48" height="8" rx="3" fill="#111827" stroke="#FFFFFF" stroke-width="1.3"/>
      <rect x="-6" y="50" width="12" height="36" rx="4" fill="#EF4444" stroke="#FFFFFF" stroke-width="1.2"/>
      <circle cx="0" cy="92" r="7.5" fill="#111827" stroke="#FFFFFF" stroke-width="1.3"/>
    </g>
  </g>

  <!-- ========= Shield (slightly reduced so swords are visible) ========= -->
  <!-- Scale around center: translate to center → scale → translate back -->
  <g filter="url(#shadow)" transform="translate(128,128) scale(0.88) translate(-128,-128)">
    <use href="#shield-shape" fill="url(#hb-grad)" stroke="#FFFFFF" stroke-width="2"/>
  </g>

  <!-- ========= Full-shield Guilloché pattern (clipped to the scaled shield) ========= -->
  <!-- Apply the same scale transform to the pattern group so it fills the scaled shield -->
  <g clip-path="url(#clip-shield)" transform="translate(128,128) scale(0.88) translate(-128,-128)">
    <!-- Draw pattern centered; thin white lines, two rings for richness -->
    <g transform="translate(128,128)" fill="none" stroke="#FFFFFF" stroke-opacity="0.28" stroke-width="1">
      <!-- Outer rosette: larger ellipses rotated around center -->
      <ellipse rx="78" ry="26"/>
      <ellipse rx="78" ry="26" transform="rotate(10)"/>
      <ellipse rx="78" ry="26" transform="rotate(20)"/>
      <ellipse rx="78" ry="26" transform="rotate(30)"/>
      <ellipse rx="78" ry="26" transform="rotate(40)"/>
      <ellipse rx="78" ry="26" transform="rotate(50)"/>
      <ellipse rx="78" ry="26" transform="rotate(60)"/>
      <ellipse rx="78" ry="26" transform="rotate(70)"/>
      <ellipse rx="78" ry="26" transform="rotate(80)"/>
      <ellipse rx="78" ry="26" transform="rotate(90)"/>
      <ellipse rx="78" ry="26" transform="rotate(100)"/>
      <ellipse rx="78" ry="26" transform="rotate(110)"/>
      <ellipse rx="78" ry="26" transform="rotate(120)"/>
      <ellipse rx="78" ry="26" transform="rotate(130)"/>
      <ellipse rx="78" ry="26" transform="rotate(140)"/>
      <ellipse rx="78" ry="26" transform="rotate(150)"/>
      <ellipse rx="78" ry="26" transform="rotate(160)"/>
      <ellipse rx="78" ry="26" transform="rotate(170)"/>
    </g>

    <g transform="translate(128,128) scale(0.84) rotate(5)" fill="none" stroke="#FFFFFF" stroke-opacity="0.22" stroke-width="0.9">
      <!-- Inner rosette: slightly smaller/offset to create guilloché interference -->
      <ellipse rx="78" ry="22"/>
      <ellipse rx="78" ry="22" transform="rotate(10)"/>
      <ellipse rx="78" ry="22" transform="rotate(20)"/>
      <ellipse rx="78" ry="22" transform="rotate(30)"/>
      <ellipse rx="78" ry="22" transform="rotate(40)"/>
      <ellipse rx="78" ry="22" transform="rotate(50)"/>
      <ellipse rx="78" ry="22" transform="rotate(60)"/>
      <ellipse rx="78" ry="22" transform="rotate(70)"/>
      <ellipse rx="78" ry="22" transform="rotate(80)"/>
      <ellipse rx="78" ry="22" transform="rotate(90)"/>
      <ellipse rx="78" ry="22" transform="rotate(100)"/>
      <ellipse rx="78" ry="22" transform="rotate(110)"/>
      <ellipse rx="78" ry="22" transform="rotate(120)"/>
      <ellipse rx="78" ry="22" transform="rotate(130)"/>
      <ellipse rx="78" ry="22" transform="rotate(140)"/>
      <ellipse rx="78" ry="22" transform="rotate(150)"/>
      <ellipse rx="78" ry="22" transform="rotate(160)"/>
      <ellipse rx="78" ry="22" transform="rotate(170)"/>
    </g>
  </g></svg>
